<svg width="150" height="150" viewBox="0 0 150 150" fill="none" xmlns="http://www.w3.org/2000/svg">
<g clip-path="url(#clip0_184_843)">
<path d="M75 150C116.421 150 150 116.421 150 75C150 33.5786 116.421 0 75 0C33.5786 0 0 33.5786 0 75C0 116.421 33.5786 150 75 150Z" fill="#29A71A"/>
<path d="M108.068 41.9318C100.265 34.0508 89.9026 29.2176 78.8498 28.3041C67.797 27.3906 56.7816 30.4568 47.7904 36.9497C38.7993 43.4426 32.4243 52.9348 29.8154 63.7141C27.2065 74.4933 28.5355 85.85 33.5625 95.7357L28.6278 119.693C28.5766 119.932 28.5752 120.178 28.6236 120.417C28.672 120.656 28.7692 120.883 28.9091 121.082C29.1141 121.386 29.4066 121.619 29.7478 121.751C30.0889 121.884 30.4623 121.909 30.8182 121.824L54.2983 116.258C64.1562 121.158 75.4328 122.402 86.1215 119.768C96.8101 117.134 106.218 110.793 112.67 101.874C119.122 92.9543 122.201 82.0351 121.359 71.0589C120.516 60.0828 115.806 49.7615 108.068 41.9318ZM100.747 100.364C95.3482 105.747 88.396 109.301 80.8701 110.524C73.3443 111.748 65.6244 110.579 58.7983 107.182L55.5256 105.562L41.1307 108.972L41.1733 108.793L44.1563 94.3039L42.554 91.142C39.0661 84.292 37.8358 76.5139 39.0391 68.9219C40.2424 61.3299 43.8177 54.3135 49.2528 48.8778C56.0822 42.0506 65.3434 38.2153 75 38.2153C84.6566 38.2153 93.9179 42.0506 100.747 48.8778C100.805 48.9445 100.868 49.0071 100.935 49.0653C107.679 55.9101 111.445 65.1437 111.409 74.7531C111.374 84.3624 107.542 93.5683 100.747 100.364Z" fill="white"/>
<path d="M99.4687 89.7358C97.7045 92.5142 94.9176 95.9147 91.4148 96.7585C85.2784 98.2415 75.8608 96.8096 64.142 85.8835L63.9971 85.7557C53.6932 76.2017 51.017 68.25 51.6648 61.9432C52.0227 58.3636 55.0057 55.125 57.5199 53.0113C57.9174 52.6721 58.3887 52.4306 58.8962 52.306C59.4038 52.1815 59.9334 52.1775 60.4428 52.2943C60.9521 52.4111 61.4271 52.6454 61.8297 52.9786C62.2323 53.3118 62.5513 53.7345 62.7613 54.213L66.554 62.7358C66.8004 63.2884 66.8917 63.8977 66.8182 64.4983C66.7446 65.0988 66.5089 65.6681 66.1363 66.1449L64.2187 68.6335C63.8073 69.1474 63.559 69.7726 63.5058 70.4287C63.4527 71.0849 63.5971 71.7419 63.9204 72.3153C64.9943 74.1988 67.5682 76.9687 70.4233 79.5341C73.6278 82.4318 77.1818 85.0824 79.4318 85.9858C80.0339 86.2317 80.6958 86.2918 81.3323 86.1581C81.9687 86.0244 82.5506 85.7032 83.0028 85.2358L85.2273 82.9943C85.6565 82.5711 86.1902 82.2692 86.7741 82.1195C87.358 81.9698 87.9712 81.9775 88.5511 82.142L97.5596 84.6988C98.0566 84.8513 98.5121 85.1153 98.8913 85.4708C99.2705 85.8263 99.5634 86.2638 99.7477 86.7498C99.9319 87.2358 100.003 87.7576 99.9542 88.2751C99.9058 88.7926 99.7398 89.2923 99.4687 89.7358Z" fill="white"/>
</g>
<defs>
<clipPath id="clip0_184_843">
<rect width="150" height="150" fill="white"/>
</clipPath>
</defs>
</svg>
